<svg xmlns="http://www.w3.org/2000/svg" viewBox="472.22 45.85 135.56 135.56" width="64" height="64">
  <rect x="472.22" y="45.85" width="135.56" height="135.56" rx="26" fill="#111111"/>
  <g fill="#ece8e1" stroke="none">
        <path d="M546.21,65.94v39.06l-1.92,1.92h-8.89l-2.21-2.21v-39.11l-20.62,29.46,10.51,32.29h8.04l2.07-2.07v-12.22l2.85-2.85h7.91l2.26,2.26v10.2l4.69,4.69h7.71l1.63-7.92,5.18-25.17-19.21-28.32ZM526.21,119.43l-5.03-23.92,3.52-4.57,4.19,28.49h-2.68ZM551.59,119.43v-30.28l3.89,2.79-1.17,27.49h-2.72Z" style="fill: #f3efe7;"></path>
        <path d="M507.91,152.69l5.73-5.83-2.76-8.09,10.18-10.81c-.71,2.39-2.46,8.32-3.4,11.6l.47,8.12-4.36,5.26,12.62,9.29-18.48-9.54Z" style="fill: #f3efe7;"></path>
        <path d="M529.43,146.64c-.61.42-1.34.67-2.14.67-2.08,0-3.76-1.68-3.76-3.76,0-1.44.81-2.69,1.99-3.32l3.9,6.41Z" style="fill: #f3efe7;"></path>
        <path d="M557.65,143.9c0,2.08-1.68,3.76-3.76,3.76-.79,0-1.53-.25-2.13-.67l3.9-6.41c1.19.63,1.99,1.88,1.99,3.32Z" style="fill: #f3efe7;"></path>
        <polygon points="549.55 163.25 540.91 167.41 533.9 164.08 541.38 166.05 549.55 163.25" style="fill: #f3efe7;"></polygon>
        <polygon points="541.97 151.04 540.02 156.06 538.07 151.04 541.97 151.04" style="fill: #f3efe7;"></polygon>
        <polygon points="559.12 161.96 566.03 152.84 561 147.3 563.48 138.41 560.93 127.82 568.81 138.13 566.78 146.62 571.78 151.04 559.12 161.96" style="fill: #f3efe7;"></polygon>
        <polygon points="568.73 157.59 574.61 150.27 570.74 146.19 576.46 149.91 568.73 157.59" style="fill: #f3efe7;"></polygon>
        <polygon points="566.71 159.48 566.02 160.89 564.46 161.53 566.71 159.48" style="fill: #f3efe7;"></polygon>
        <polygon points="510.25 146.92 504.54 152.42 508.5 155.44 503.54 152.47 510.36 145.35 510.25 146.92" style="fill: #f3efe7;"></polygon>
        <polygon points="513.19 157.89 511.98 157.45 511.42 156.64 513.19 157.89" style="fill: #f3efe7;"></polygon>
        <polygon points="511.03 97.24 513.95 105.93 510.48 98.03 509.32 95.39 511.61 92.13 514.9 87.44 511.85 92.85 510.41 95.39 511.03 97.24" style="fill: #f3efe7;"></polygon>
        <polygon points="545.59 63.13 544.61 80.04 544.15 59.85 546.21 62.52 553.79 72.37 545.59 63.13" style="fill: #f3efe7;"></polygon>
      </g>
</svg>
